<svg width="39" height="39" viewBox="0 0 39 39" fill="none" xmlns="http://www.w3.org/2000/svg">
<path d="M19.4998 2.4375C19.823 2.4375 20.133 2.5659 20.3616 2.79446C20.5902 3.02302 20.7186 3.33302 20.7186 3.65625V16.4361L21.9373 17.3062V11.505C21.9373 9.18937 23.8142 7.3125 26.1298 7.3125C27.4071 7.3125 28.6234 7.97062 29.6471 8.7555C30.6977 9.56475 31.7117 10.6397 32.6111 11.7512C34.4051 13.9644 35.8944 16.4946 36.4624 17.7962C36.8914 18.7834 37.4203 20.6237 37.8176 22.698C38.2198 24.7869 38.5074 27.2244 38.4026 29.4231C38.3051 31.5364 37.8371 33.7862 36.3624 35.1024C34.7293 36.5649 32.4088 36.4577 29.6812 35.0927L25.3059 32.9062C24.2937 32.4002 23.4425 31.6222 22.8475 30.6596C22.2525 29.697 21.9374 28.5877 21.9373 27.456V20.3019L19.4998 18.5591L17.0623 20.3019V17.5841C16.8186 17.5841 16.5699 17.6573 16.3554 17.8108L10.2617 22.1642C10.1258 22.2547 10.0094 22.3716 9.91953 22.5079C9.82966 22.6443 9.76811 22.7973 9.73853 22.9579C9.70894 23.1185 9.71194 23.2834 9.74733 23.4428C9.78272 23.6022 9.84979 23.7529 9.94455 23.8859C10.0393 24.0189 10.1598 24.1315 10.299 24.217C10.4381 24.3025 10.593 24.3592 10.7544 24.3836C10.9159 24.4081 11.0806 24.3999 11.2388 24.3595C11.397 24.319 11.5455 24.2472 11.6754 24.1483L17.0623 20.3019V27.456C17.0623 28.5877 16.7471 29.697 16.1521 30.6596C15.5572 31.6222 14.7059 32.4002 13.6937 32.9062L9.31837 35.0927C6.58837 36.4577 4.27275 36.5625 2.63719 35.1024C1.1625 33.7862 0.692063 31.5364 0.594563 29.4231C0.492188 27.2244 0.779812 24.7869 1.17956 22.698C1.57931 20.6213 2.10581 18.7834 2.53969 17.7938C3.10519 16.4946 4.5945 13.9644 6.3885 11.7512C7.29037 10.6397 8.30194 9.56475 9.3525 8.7555C10.3762 7.97062 11.5926 7.3125 12.8698 7.3125C15.1854 7.3125 17.0623 9.18937 17.0623 11.505V17.3062L18.2811 16.4361V3.65625C18.2811 3.33302 18.4095 3.02302 18.638 2.79446C18.8666 2.5659 19.1766 2.4375 19.4998 2.4375ZM27.3242 24.1483C27.4541 24.2472 27.6026 24.319 27.7608 24.3595C27.919 24.3999 28.0837 24.4081 28.2452 24.3836C28.4067 24.3592 28.5615 24.3025 28.7007 24.217C28.8398 24.1315 28.9603 24.0189 29.0551 23.8859C29.1498 23.7529 29.2169 23.6022 29.2523 23.4428C29.2877 23.2834 29.2907 23.1185 29.2611 22.9579C29.2315 22.7973 29.17 22.6443 29.0801 22.5079C28.9902 22.3716 28.8739 22.2547 28.7379 22.1642L22.6442 17.8108C22.4379 17.6636 22.1908 17.5843 21.9373 17.5841V20.3019L27.3242 24.1483Z" fill="#747EFF"/>
</svg>
