<svg width="32" height="27" viewBox="0 0 32 27" fill="none" xmlns="http://www.w3.org/2000/svg">
<path d="M4.95833 7.08333C4.95833 5.20472 5.70461 3.40304 7.03299 2.07466C8.36138 0.746278 10.163 0 12.0417 0C13.9203 0 15.722 0.746278 17.0503 2.07466C18.3787 3.40304 19.125 5.20472 19.125 7.08333C19.125 8.96195 18.3787 10.7636 17.0503 12.092C15.722 13.4204 13.9203 14.1667 12.0417 14.1667C10.163 14.1667 8.36138 13.4204 7.03299 12.092C5.70461 10.7636 4.95833 8.96195 4.95833 7.08333ZM29.1451 5.168L29.8492 6.39625C30.7125 7.8998 31.1666 9.60344 31.1661 11.3373C31.1656 13.0711 30.7106 14.7744 29.8463 16.2775L29.1394 17.5058L26.6843 16.0933L27.3898 14.8651C28.0072 13.7916 28.3324 12.5749 28.3329 11.3365C28.3334 10.0981 28.0092 8.88126 27.3927 7.80725L26.6872 6.579L29.1451 5.168ZM24.8455 7.63583L25.5496 8.8655C25.9814 9.61707 26.2086 10.4687 26.2086 11.3355C26.2086 12.2022 25.9814 13.0538 25.5496 13.8054L24.8412 15.0337L22.3862 13.6212L23.0917 12.393C23.2769 12.0708 23.3743 11.7057 23.3743 11.334C23.3743 10.9624 23.2769 10.5973 23.0917 10.2751L22.3876 9.04683L24.8455 7.63583ZM0 24.0833C0 22.2047 0.746278 20.403 2.07466 19.0747C3.40304 17.7463 5.20472 17 7.08333 17H17C18.8786 17 20.6803 17.7463 22.0087 19.0747C23.3371 20.403 24.0833 22.2047 24.0833 24.0833V26.9167H0V24.0833Z" fill="#747EFF"/>
</svg>
