<svg width="32" height="35" viewBox="0 0 32 35" fill="none" xmlns="http://www.w3.org/2000/svg">
<path d="M22.75 26.25H11.1562C10.4854 26.25 9.93883 26.4542 9.5165 26.8625C9.09417 27.2708 8.83867 27.7375 8.75 28.2625C8.66133 28.7875 8.74183 29.2979 8.9915 29.7938C9.24117 30.2896 9.68567 30.6542 10.325 30.8875L20.3438 34.8688C20.6354 34.9854 20.9201 35.0222 21.1978 34.979C21.4754 34.9358 21.7303 34.8408 21.9625 34.6938C22.1947 34.5468 22.3843 34.3502 22.5312 34.104C22.6782 33.8578 22.7512 33.5732 22.75 33.25V26.25ZM12.25 0C14.175 0 15.8229 0.685417 17.1938 2.05625C18.5646 3.42708 19.25 5.075 19.25 7C19.25 8.925 18.5646 10.5729 17.1938 11.9438C15.8229 13.3146 14.175 14 12.25 14C10.325 14 8.67708 13.3146 7.30625 11.9438C5.93542 10.5729 5.25 8.925 5.25 7C5.25 5.075 5.93542 3.42708 7.30625 2.05625C8.67708 0.685417 10.325 0 12.25 0ZM28.3938 15.75C29.2396 15.75 29.9688 16.0341 30.5813 16.6023C31.1938 17.1704 31.5 17.878 31.5 18.725C31.5 19.3958 31.3104 20.0083 30.9312 20.5625C30.5521 21.1167 30.0417 21.5104 29.4 21.7438L26.25 22.75H11.1562C9.49375 22.75 8.09375 23.3188 6.95625 24.4563C5.81875 25.5938 5.25 26.9938 5.25 28.6563C5.25 29.1813 5.32292 29.6847 5.46875 30.1665C5.61458 30.6483 5.80417 31.0928 6.0375 31.5H0V24.5C0 22.0792 0.853416 20.0159 2.56025 18.3103C4.26708 16.6046 6.33033 15.7512 8.75 15.75H28.3938Z" fill="#747EFF"/>
</svg>
